<svg width="512" height="335" xmlns="http://www.w3.org/2000/svg">

 <g>
  <title>background</title>
  <rect fill="none" id="canvas_background" height="337" width="514" y="-1" x="-1"/>
 </g>
 <g>
  <title>Layer 1</title>
  <path id="svg_1" fill="#41479B" d="m503.172,335.725l-494.344,0c-4.875,0 -8.828,-3.953 -8.828,-8.828l0,-317.793c0,-4.875 3.953,-8.828 8.828,-8.828l494.345,0c4.875,0 8.828,3.953 8.828,8.828l0,317.793c-0.001,4.876 -3.954,8.828 -8.829,8.828z"/>
  <g id="svg_2">
   <path id="svg_3" fill="#FFE15A" d="m259.59,38.686l3.54,10.613l11.187,0.087c1.449,0.011 2.049,1.859 0.884,2.72l-9,6.646l3.374,10.666c0.437,1.38 -1.135,2.524 -2.314,1.681l-9.101,-6.506l-9.101,6.506c-1.178,0.842 -2.751,-0.3 -2.314,-1.681l3.374,-10.666l-9,-6.646c-1.165,-0.861 -0.565,-2.709 0.884,-2.72l11.187,-0.087l3.54,-10.613c0.457,-1.374 2.402,-1.374 2.86,0z"/>
   <path id="svg_4" fill="#FFE15A" d="m259.59,266.548l3.54,10.613l11.187,0.087c1.449,0.011 2.049,1.859 0.884,2.72l-9,6.646l3.374,10.666c0.437,1.38 -1.135,2.524 -2.314,1.681l-9.101,-6.506l-9.101,6.506c-1.178,0.842 -2.751,-0.3 -2.314,-1.681l3.374,-10.666l-9,-6.646c-1.165,-0.861 -0.565,-2.709 0.884,-2.72l11.187,-0.087l3.54,-10.613c0.457,-1.374 2.402,-1.374 2.86,0z"/>
   <path id="svg_5" fill="#FFE15A" d="m373.521,152.617l3.54,10.613l11.187,0.087c1.449,0.011 2.049,1.859 0.884,2.72l-9,6.646l3.374,10.666c0.437,1.38 -1.135,2.524 -2.314,1.681l-9.101,-6.506l-9.101,6.506c-1.178,0.842 -2.751,-0.3 -2.314,-1.681l3.374,-10.666l-9,-6.646c-1.165,-0.861 -0.565,-2.709 0.884,-2.72l11.187,-0.087l3.54,-10.613c0.457,-1.374 2.402,-1.374 2.86,0z"/>
   <path id="svg_6" fill="#FFE15A" d="m145.658,152.617l3.54,10.613l11.187,0.087c1.449,0.011 2.049,1.859 0.884,2.72l-9,6.646l3.374,10.666c0.437,1.38 -1.135,2.524 -2.314,1.681l-9.101,-6.506l-9.101,6.506c-1.178,0.842 -2.751,-0.3 -2.314,-1.681l3.374,-10.666l-9,-6.646c-1.165,-0.861 -0.565,-2.709 0.884,-2.72l11.187,-0.087l3.54,-10.613c0.458,-1.374 2.403,-1.374 2.86,0z"/>
   <path id="svg_7" fill="#FFE15A" d="m162.762,93.121l3.54,10.613l11.187,0.087c1.449,0.011 2.049,1.859 0.884,2.72l-9,6.646l3.374,10.666c0.437,1.38 -1.135,2.524 -2.314,1.681l-9.101,-6.506l-9.101,6.506c-1.178,0.842 -2.751,-0.3 -2.314,-1.681l3.374,-10.666l-9,-6.646c-1.165,-0.861 -0.565,-2.709 0.884,-2.72l11.187,-0.087l3.54,-10.613c0.458,-1.374 2.401,-1.374 2.86,0z"/>
   <path id="svg_8" fill="#FFE15A" d="m360.096,207.052l3.54,10.613l11.187,0.087c1.449,0.011 2.049,1.859 0.884,2.72l-9,6.646l3.374,10.666c0.437,1.38 -1.135,2.524 -2.314,1.681l-9.101,-6.506l-9.101,6.506c-1.178,0.842 -2.751,-0.3 -2.314,-1.681l3.374,-10.666l-9,-6.646c-1.165,-0.861 -0.565,-2.709 0.884,-2.72l11.187,-0.087l3.54,-10.613c0.458,-1.374 2.402,-1.374 2.86,0z"/>
   <path id="svg_9" fill="#FFE15A" d="m318.395,51.419l3.54,10.613l11.187,0.087c1.449,0.011 2.049,1.859 0.884,2.72l-9,6.646l3.374,10.666c0.437,1.38 -1.135,2.524 -2.314,1.681l-9.101,-6.506l-9.101,6.506c-1.178,0.842 -2.751,-0.3 -2.314,-1.681l3.374,-10.666l-9,-6.646c-1.165,-0.861 -0.565,-2.709 0.884,-2.72l11.187,-0.087l3.54,-10.613c0.457,-1.374 2.4,-1.374 2.86,0z"/>
   <path id="svg_10" fill="#FFE15A" d="m204.463,248.754l3.54,10.613l11.187,0.087c1.449,0.011 2.049,1.859 0.884,2.72l-9,6.646l3.374,10.666c0.437,1.38 -1.135,2.524 -2.314,1.681l-9.101,-6.506l-9.101,6.506c-1.178,0.842 -2.751,-0.3 -2.314,-1.681l3.374,-10.666l-9,-6.646c-1.165,-0.861 -0.565,-2.709 0.884,-2.72l11.187,-0.087l3.54,-10.613c0.458,-1.374 2.401,-1.374 2.86,0z"/>
   <path id="svg_11" fill="#FFE15A" d="m357.236,93.121l-3.54,10.613l-11.187,0.087c-1.449,0.011 -2.049,1.859 -0.884,2.72l9,6.646l-3.374,10.666c-0.437,1.38 1.135,2.524 2.314,1.681l9.101,-6.506l9.101,6.506c1.178,0.842 2.751,-0.3 2.314,-1.681l-3.374,-10.666l9,-6.646c1.165,-0.861 0.565,-2.709 -0.884,-2.72l-11.187,-0.087l-3.54,-10.613c-0.458,-1.374 -2.402,-1.374 -2.86,0z"/>
   <path id="svg_12" fill="#FFE15A" d="m159.902,207.052l-3.54,10.613l-11.187,0.087c-1.449,0.011 -2.049,1.859 -0.884,2.72l9,6.646l-3.374,10.666c-0.437,1.38 1.135,2.524 2.314,1.681l9.101,-6.506l9.101,6.506c1.178,0.842 2.751,-0.3 2.314,-1.681l-3.374,-10.666l9,-6.646c1.165,-0.861 0.565,-2.709 -0.884,-2.72l-11.187,-0.087l-3.54,-10.613c-0.459,-1.374 -2.402,-1.374 -2.86,0z"/>
   <path id="svg_13" fill="#FFE15A" d="m201.603,51.419l-3.54,10.613l-11.187,0.087c-1.449,0.011 -2.049,1.859 -0.884,2.72l9,6.646l-3.374,10.666c-0.437,1.38 1.135,2.524 2.314,1.681l9.101,-6.506l9.101,6.506c1.178,0.842 2.751,-0.3 2.314,-1.681l-3.374,-10.666l9,-6.646c1.165,-0.861 0.565,-2.709 -0.884,-2.72l-11.187,-0.087l-3.54,-10.613c-0.459,-1.374 -2.402,-1.374 -2.86,0z"/>
   <path id="svg_14" fill="#FFE15A" d="m315.534,248.754l-3.54,10.613l-11.187,0.087c-1.449,0.011 -2.049,1.859 -0.884,2.72l9,6.646l-3.374,10.666c-0.437,1.38 1.135,2.524 2.314,1.681l9.101,-6.506l9.101,6.506c1.178,0.842 2.751,-0.3 2.314,-1.681l-3.374,-10.666l9,-6.646c1.165,-0.861 0.565,-2.709 -0.884,-2.72l-11.187,-0.087l-3.54,-10.613c-0.459,-1.374 -2.402,-1.374 -2.86,0z"/>
  </g>
  <g id="svg_15"/>
  <g id="svg_16"/>
  <g id="svg_17"/>
  <g id="svg_18"/>
  <g id="svg_19"/>
  <g id="svg_20"/>
  <g id="svg_21"/>
  <g id="svg_22"/>
  <g id="svg_23"/>
  <g id="svg_24"/>
  <g id="svg_25"/>
  <g id="svg_26"/>
  <g id="svg_27"/>
  <g id="svg_28"/>
  <g id="svg_29"/>
 </g>
</svg>