<svg width="512.001" height="335" xmlns="http://www.w3.org/2000/svg">

 <g>
  <title>background</title>
  <rect fill="none" id="canvas_background" height="337" width="514.001" y="-1" x="-1"/>
 </g>
 <g>
  <title>Layer 1</title>
  <path id="svg_1" fill="#F5F5F5" d="m502.172,335.725l-494.344,0c-4.875,0 -8.828,-3.953 -8.828,-8.828l0,-317.793c0,-4.875 3.953,-8.828 8.828,-8.828l494.345,0c4.875,0 8.828,3.953 8.828,8.828l0,317.793c-0.001,4.876 -3.954,8.828 -8.829,8.828z"/>
  <g id="svg_2">
   <path id="svg_3" fill="#FF4B55" d="m511,26.081l-512,0l0,-16.977c0,-4.875 3.953,-8.828 8.828,-8.828l494.345,0c4.875,0 8.828,3.953 8.828,8.828l-0.001,16.977l0,0z"/>
   <rect x="-1" id="svg_4" fill="#FF4B55" height="25.804" width="512" y="103.491"/>
   <rect x="-1" id="svg_5" fill="#FF4B55" height="25.804" width="512" y="51.881"/>
   <path id="svg_6" fill="#FF4B55" d="m511,180.903l-503.172,0c-4.875,0 -8.828,-3.953 -8.828,-8.828l0,-16.977l512,0l0,25.805z"/>
   <rect x="-1" id="svg_7" fill="#FF4B55" height="25.804" width="512" y="258.321"/>
   <path id="svg_8" fill="#FF4B55" d="m502.172,335.725l-494.344,0c-4.875,0 -8.828,-3.953 -8.828,-8.828l0,-16.976l512,0l0,16.977c0,4.875 -3.953,8.827 -8.828,8.827z"/>
   <rect x="-1" id="svg_9" fill="#FF4B55" height="25.804" width="512" y="206.711"/>
  </g>
  <path id="svg_10" fill="#41479B" d="m228.517,0.277l-220.689,0c-4.875,0 -8.828,3.952 -8.828,8.827l0,162.97c0,4.875 3.953,8.828 8.828,8.828l220.69,0c4.875,0 8.828,-3.953 8.828,-8.828l0,-162.97c-0.001,-4.875 -3.954,-8.827 -8.829,-8.827z"/>
  <g id="svg_11">
   <path id="svg_12" fill="#F5F5F5" d="m23.789,20.538l1.954,5.86l6.177,0.047c0.8,0.007 1.131,1.027 0.488,1.502l-4.969,3.67l1.864,5.889c0.242,0.762 -0.627,1.394 -1.278,0.928l-5.025,-3.591l-5.025,3.592c-0.651,0.465 -1.518,-0.166 -1.278,-0.928l1.864,-5.889l-4.969,-3.67c-0.643,-0.476 -0.312,-1.495 0.488,-1.502l6.177,-0.047l1.954,-5.86c0.252,-0.76 1.324,-0.76 1.578,-0.001z"/>
   <path id="svg_13" fill="#F5F5F5" d="m23.789,51.192l1.954,5.86l6.177,0.047c0.8,0.007 1.131,1.027 0.488,1.502l-4.969,3.67l1.864,5.889c0.242,0.762 -0.627,1.394 -1.278,0.928l-5.025,-3.591l-5.025,3.592c-0.651,0.465 -1.518,-0.166 -1.278,-0.928l1.864,-5.889l-4.969,-3.67c-0.643,-0.476 -0.312,-1.495 0.488,-1.502l6.177,-0.047l1.954,-5.86c0.252,-0.759 1.324,-0.759 1.578,-0.001z"/>
   <path id="svg_14" fill="#F5F5F5" d="m23.789,81.846l1.954,5.86l6.177,0.047c0.8,0.007 1.131,1.027 0.488,1.502l-4.969,3.67l1.864,5.889c0.242,0.762 -0.627,1.394 -1.278,0.928l-5.025,-3.591l-5.025,3.592c-0.651,0.465 -1.518,-0.166 -1.278,-0.928l1.864,-5.889l-4.969,-3.67c-0.643,-0.476 -0.312,-1.495 0.488,-1.502l6.177,-0.047l1.954,-5.86c0.252,-0.759 1.324,-0.759 1.578,-0.001z"/>
   <path id="svg_15" fill="#F5F5F5" d="m23.789,112.501l1.954,5.86l6.177,0.047c0.8,0.007 1.131,1.027 0.488,1.502l-4.969,3.67l1.864,5.889c0.242,0.762 -0.627,1.394 -1.278,0.928l-5.025,-3.591l-5.025,3.592c-0.651,0.465 -1.518,-0.166 -1.278,-0.928l1.864,-5.889l-4.969,-3.67c-0.643,-0.476 -0.312,-1.495 0.488,-1.502l6.177,-0.047l1.954,-5.86c0.252,-0.76 1.324,-0.76 1.578,-0.001z"/>
   <path id="svg_16" fill="#F5F5F5" d="m23.789,143.155l1.954,5.86l6.177,0.047c0.8,0.007 1.131,1.027 0.488,1.502l-4.969,3.67l1.864,5.889c0.242,0.762 -0.627,1.394 -1.278,0.928l-5.025,-3.591l-5.025,3.592c-0.651,0.465 -1.518,-0.166 -1.278,-0.928l1.864,-5.889l-4.969,-3.67c-0.643,-0.476 -0.312,-1.495 0.488,-1.502l6.177,-0.047l1.954,-5.86c0.252,-0.761 1.324,-0.761 1.578,-0.001z"/>
   <path id="svg_17" fill="#F5F5F5" d="m47.582,35.567l1.954,5.86l6.177,0.047c0.8,0.007 1.131,1.027 0.488,1.502l-4.969,3.67l1.864,5.889c0.242,0.762 -0.627,1.394 -1.278,0.928l-5.025,-3.592l-5.025,3.592c-0.651,0.465 -1.518,-0.166 -1.278,-0.928l1.864,-5.889l-4.969,-3.67c-0.643,-0.476 -0.312,-1.495 0.488,-1.502l6.177,-0.047l1.954,-5.86c0.251,-0.758 1.325,-0.758 1.578,0z"/>
   <path id="svg_18" fill="#F5F5F5" d="m47.582,66.222l1.954,5.86l6.177,0.047c0.8,0.007 1.131,1.027 0.488,1.502l-4.969,3.67l1.864,5.889c0.242,0.762 -0.627,1.394 -1.278,0.928l-5.025,-3.592l-5.025,3.592c-0.651,0.465 -1.518,-0.165 -1.278,-0.928l1.864,-5.889l-4.969,-3.67c-0.643,-0.476 -0.312,-1.495 0.488,-1.502l6.177,-0.047l1.954,-5.86c0.251,-0.759 1.325,-0.759 1.578,0z"/>
   <path id="svg_19" fill="#F5F5F5" d="m47.582,96.876l1.954,5.86l6.177,0.047c0.8,0.007 1.131,1.027 0.488,1.502l-4.969,3.67l1.864,5.889c0.242,0.762 -0.627,1.394 -1.278,0.928l-5.025,-3.592l-5.025,3.592c-0.651,0.465 -1.518,-0.166 -1.278,-0.928l1.864,-5.889l-4.969,-3.67c-0.643,-0.476 -0.312,-1.495 0.488,-1.502l6.177,-0.047l1.954,-5.86c0.251,-0.759 1.325,-0.759 1.578,0z"/>
   <path id="svg_20" fill="#F5F5F5" d="m47.582,127.53l1.954,5.86l6.177,0.047c0.8,0.007 1.131,1.027 0.488,1.502l-4.969,3.67l1.864,5.889c0.242,0.762 -0.627,1.394 -1.278,0.928l-5.025,-3.592l-5.025,3.592c-0.651,0.465 -1.518,-0.166 -1.278,-0.928l1.864,-5.889l-4.969,-3.67c-0.643,-0.476 -0.312,-1.495 0.488,-1.502l6.177,-0.047l1.954,-5.86c0.251,-0.758 1.325,-0.758 1.578,0z"/>
   <path id="svg_21" fill="#F5F5F5" d="m71.375,20.538l1.954,5.86l6.177,0.047c0.8,0.007 1.131,1.027 0.488,1.502l-4.969,3.67l1.864,5.889c0.242,0.762 -0.627,1.394 -1.278,0.928l-5.025,-3.592l-5.025,3.592c-0.651,0.465 -1.518,-0.166 -1.278,-0.928l1.864,-5.889l-4.969,-3.67c-0.643,-0.476 -0.312,-1.495 0.488,-1.502l6.177,-0.047l1.954,-5.86c0.252,-0.759 1.325,-0.759 1.578,0z"/>
   <path id="svg_22" fill="#F5F5F5" d="m71.375,51.192l1.954,5.86l6.177,0.047c0.8,0.007 1.131,1.027 0.488,1.502l-4.969,3.67l1.864,5.889c0.242,0.762 -0.627,1.394 -1.278,0.928l-5.025,-3.592l-5.025,3.592c-0.651,0.465 -1.518,-0.166 -1.278,-0.928l1.864,-5.889l-4.969,-3.67c-0.643,-0.476 -0.312,-1.495 0.488,-1.502l6.177,-0.047l1.954,-5.86c0.252,-0.758 1.325,-0.758 1.578,0z"/>
   <path id="svg_23" fill="#F5F5F5" d="m71.375,81.846l1.954,5.86l6.177,0.047c0.8,0.007 1.131,1.027 0.488,1.502l-4.969,3.67l1.864,5.889c0.242,0.762 -0.627,1.394 -1.278,0.928l-5.025,-3.592l-5.025,3.592c-0.651,0.465 -1.518,-0.166 -1.278,-0.928l1.864,-5.889l-4.969,-3.67c-0.643,-0.476 -0.312,-1.495 0.488,-1.502l6.177,-0.047l1.954,-5.86c0.252,-0.758 1.325,-0.758 1.578,0z"/>
   <path id="svg_24" fill="#F5F5F5" d="m71.375,112.501l1.954,5.86l6.177,0.047c0.8,0.007 1.131,1.027 0.488,1.502l-4.969,3.67l1.864,5.889c0.242,0.762 -0.627,1.394 -1.278,0.928l-5.025,-3.592l-5.025,3.592c-0.651,0.465 -1.518,-0.166 -1.278,-0.928l1.864,-5.889l-4.969,-3.67c-0.643,-0.476 -0.312,-1.495 0.488,-1.502l6.177,-0.047l1.954,-5.86c0.252,-0.759 1.325,-0.759 1.578,0z"/>
   <path id="svg_25" fill="#F5F5F5" d="m71.375,143.155l1.954,5.86l6.177,0.047c0.8,0.007 1.131,1.027 0.488,1.502l-4.969,3.67l1.864,5.889c0.242,0.762 -0.627,1.394 -1.278,0.928l-5.025,-3.592l-5.025,3.592c-0.651,0.465 -1.518,-0.166 -1.278,-0.928l1.864,-5.889l-4.969,-3.67c-0.643,-0.476 -0.312,-1.495 0.488,-1.502l6.177,-0.047l1.954,-5.86c0.252,-0.76 1.325,-0.76 1.578,0z"/>
   <path id="svg_26" fill="#F5F5F5" d="m95.169,35.567l1.954,5.86l6.177,0.047c0.8,0.007 1.131,1.027 0.488,1.502l-4.969,3.67l1.864,5.889c0.242,0.762 -0.627,1.394 -1.278,0.928l-5.025,-3.592l-5.025,3.592c-0.651,0.465 -1.518,-0.166 -1.278,-0.928l1.864,-5.889l-4.969,-3.67c-0.643,-0.476 -0.312,-1.495 0.488,-1.502l6.177,-0.047l1.954,-5.86c0.251,-0.758 1.325,-0.758 1.578,0z"/>
   <path id="svg_27" fill="#F5F5F5" d="m95.169,66.222l1.954,5.86l6.177,0.047c0.8,0.007 1.131,1.027 0.488,1.502l-4.969,3.67l1.864,5.889c0.242,0.762 -0.627,1.394 -1.278,0.928l-5.025,-3.592l-5.025,3.592c-0.651,0.465 -1.518,-0.165 -1.278,-0.928l1.864,-5.889l-4.969,-3.67c-0.643,-0.476 -0.312,-1.495 0.488,-1.502l6.177,-0.047l1.954,-5.86c0.251,-0.759 1.325,-0.759 1.578,0z"/>
   <path id="svg_28" fill="#F5F5F5" d="m95.169,96.876l1.954,5.86l6.177,0.047c0.8,0.007 1.131,1.027 0.488,1.502l-4.969,3.67l1.864,5.889c0.242,0.762 -0.627,1.394 -1.278,0.928l-5.025,-3.592l-5.025,3.592c-0.651,0.465 -1.518,-0.166 -1.278,-0.928l1.864,-5.889l-4.969,-3.67c-0.643,-0.476 -0.312,-1.495 0.488,-1.502l6.177,-0.047l1.954,-5.86c0.251,-0.759 1.325,-0.759 1.578,0z"/>
   <path id="svg_29" fill="#F5F5F5" d="m95.169,127.53l1.954,5.86l6.177,0.047c0.8,0.007 1.131,1.027 0.488,1.502l-4.969,3.67l1.864,5.889c0.242,0.762 -0.627,1.394 -1.278,0.928l-5.025,-3.592l-5.025,3.592c-0.651,0.465 -1.518,-0.166 -1.278,-0.928l1.864,-5.889l-4.969,-3.67c-0.643,-0.476 -0.312,-1.495 0.488,-1.502l6.177,-0.047l1.954,-5.86c0.251,-0.758 1.325,-0.758 1.578,0z"/>
   <path id="svg_30" fill="#F5F5F5" d="m118.962,20.538l1.954,5.86l6.177,0.047c0.8,0.007 1.131,1.027 0.488,1.502l-4.969,3.67l1.864,5.889c0.242,0.762 -0.627,1.394 -1.278,0.928l-5.026,-3.592l-5.025,3.592c-0.651,0.465 -1.518,-0.166 -1.278,-0.928l1.864,-5.889l-4.969,-3.67c-0.643,-0.476 -0.312,-1.495 0.488,-1.502l6.177,-0.047l1.954,-5.86c0.253,-0.759 1.326,-0.759 1.579,0z"/>
   <path id="svg_31" fill="#F5F5F5" d="m118.962,51.192l1.954,5.86l6.177,0.047c0.8,0.007 1.131,1.027 0.488,1.502l-4.969,3.67l1.864,5.889c0.242,0.762 -0.627,1.394 -1.278,0.928l-5.026,-3.592l-5.025,3.592c-0.651,0.465 -1.518,-0.166 -1.278,-0.928l1.864,-5.889l-4.969,-3.67c-0.643,-0.476 -0.312,-1.495 0.488,-1.502l6.177,-0.047l1.954,-5.86c0.253,-0.758 1.326,-0.758 1.579,0z"/>
   <path id="svg_32" fill="#F5F5F5" d="m118.962,81.846l1.954,5.86l6.177,0.047c0.8,0.007 1.131,1.027 0.488,1.502l-4.969,3.67l1.864,5.889c0.242,0.762 -0.627,1.394 -1.278,0.928l-5.026,-3.592l-5.025,3.592c-0.651,0.465 -1.518,-0.166 -1.278,-0.928l1.864,-5.889l-4.969,-3.67c-0.643,-0.476 -0.312,-1.495 0.488,-1.502l6.177,-0.047l1.954,-5.86c0.253,-0.758 1.326,-0.758 1.579,0z"/>
   <path id="svg_33" fill="#F5F5F5" d="m118.962,112.501l1.954,5.86l6.177,0.047c0.8,0.007 1.131,1.027 0.488,1.502l-4.969,3.67l1.864,5.889c0.242,0.762 -0.627,1.394 -1.278,0.928l-5.026,-3.592l-5.025,3.592c-0.651,0.465 -1.518,-0.166 -1.278,-0.928l1.864,-5.889l-4.969,-3.67c-0.643,-0.476 -0.312,-1.495 0.488,-1.502l6.177,-0.047l1.954,-5.86c0.253,-0.759 1.326,-0.759 1.579,0z"/>
   <path id="svg_34" fill="#F5F5F5" d="m118.962,143.155l1.954,5.86l6.177,0.047c0.8,0.007 1.131,1.027 0.488,1.502l-4.969,3.67l1.864,5.889c0.242,0.762 -0.627,1.394 -1.278,0.928l-5.026,-3.592l-5.025,3.592c-0.651,0.465 -1.518,-0.166 -1.278,-0.928l1.864,-5.889l-4.969,-3.67c-0.643,-0.476 -0.312,-1.495 0.488,-1.502l6.177,-0.047l1.954,-5.86c0.253,-0.76 1.326,-0.76 1.579,0z"/>
   <path id="svg_35" fill="#F5F5F5" d="m142.755,35.567l1.954,5.86l6.177,0.047c0.8,0.007 1.131,1.027 0.488,1.502l-4.969,3.67l1.864,5.889c0.242,0.762 -0.627,1.394 -1.278,0.928l-5.025,-3.592l-5.025,3.592c-0.651,0.465 -1.518,-0.166 -1.278,-0.928l1.864,-5.889l-4.969,-3.67c-0.643,-0.476 -0.312,-1.495 0.488,-1.502l6.177,-0.047l1.954,-5.86c0.253,-0.758 1.325,-0.758 1.578,0z"/>
   <path id="svg_36" fill="#F5F5F5" d="m142.755,66.222l1.954,5.86l6.177,0.047c0.8,0.007 1.131,1.027 0.488,1.502l-4.969,3.67l1.864,5.889c0.242,0.762 -0.627,1.394 -1.278,0.928l-5.025,-3.592l-5.025,3.592c-0.651,0.465 -1.518,-0.165 -1.278,-0.928l1.864,-5.889l-4.969,-3.67c-0.643,-0.476 -0.312,-1.495 0.488,-1.502l6.177,-0.047l1.954,-5.86c0.253,-0.759 1.325,-0.759 1.578,0z"/>
   <path id="svg_37" fill="#F5F5F5" d="m142.755,96.876l1.954,5.86l6.177,0.047c0.8,0.007 1.131,1.027 0.488,1.502l-4.969,3.67l1.864,5.889c0.242,0.762 -0.627,1.394 -1.278,0.928l-5.025,-3.592l-5.025,3.592c-0.651,0.465 -1.518,-0.166 -1.278,-0.928l1.864,-5.889l-4.969,-3.67c-0.643,-0.476 -0.312,-1.495 0.488,-1.502l6.177,-0.047l1.954,-5.86c0.253,-0.759 1.325,-0.759 1.578,0z"/>
   <path id="svg_38" fill="#F5F5F5" d="m142.755,127.53l1.954,5.86l6.177,0.047c0.8,0.007 1.131,1.027 0.488,1.502l-4.969,3.67l1.864,5.889c0.242,0.762 -0.627,1.394 -1.278,0.928l-5.025,-3.592l-5.025,3.592c-0.651,0.465 -1.518,-0.166 -1.278,-0.928l1.864,-5.889l-4.969,-3.67c-0.643,-0.476 -0.312,-1.495 0.488,-1.502l6.177,-0.047l1.954,-5.86c0.253,-0.758 1.325,-0.758 1.578,0z"/>
   <path id="svg_39" fill="#F5F5F5" d="m166.549,20.538l1.954,5.86l6.177,0.047c0.8,0.007 1.131,1.027 0.488,1.502l-4.969,3.67l1.864,5.889c0.242,0.762 -0.627,1.394 -1.278,0.928l-5.025,-3.592l-5.025,3.592c-0.651,0.465 -1.518,-0.166 -1.278,-0.928l1.864,-5.889l-4.969,-3.67c-0.643,-0.476 -0.312,-1.495 0.488,-1.502l6.177,-0.047l1.954,-5.86c0.251,-0.759 1.325,-0.759 1.578,0z"/>
   <path id="svg_40" fill="#F5F5F5" d="m166.549,51.192l1.954,5.86l6.177,0.047c0.8,0.007 1.131,1.027 0.488,1.502l-4.969,3.67l1.864,5.889c0.242,0.762 -0.627,1.394 -1.278,0.928l-5.025,-3.592l-5.025,3.592c-0.651,0.465 -1.518,-0.166 -1.278,-0.928l1.864,-5.889l-4.969,-3.67c-0.643,-0.476 -0.312,-1.495 0.488,-1.502l6.177,-0.047l1.954,-5.86c0.251,-0.758 1.325,-0.758 1.578,0z"/>
   <path id="svg_41" fill="#F5F5F5" d="m166.549,81.846l1.954,5.86l6.177,0.047c0.8,0.007 1.131,1.027 0.488,1.502l-4.969,3.67l1.864,5.889c0.242,0.762 -0.627,1.394 -1.278,0.928l-5.025,-3.592l-5.025,3.592c-0.651,0.465 -1.518,-0.166 -1.278,-0.928l1.864,-5.889l-4.969,-3.67c-0.643,-0.476 -0.312,-1.495 0.488,-1.502l6.177,-0.047l1.954,-5.86c0.251,-0.758 1.325,-0.758 1.578,0z"/>
   <path id="svg_42" fill="#F5F5F5" d="m166.549,112.501l1.954,5.86l6.177,0.047c0.8,0.007 1.131,1.027 0.488,1.502l-4.969,3.67l1.864,5.889c0.242,0.762 -0.627,1.394 -1.278,0.928l-5.025,-3.592l-5.025,3.592c-0.651,0.465 -1.518,-0.166 -1.278,-0.928l1.864,-5.889l-4.969,-3.67c-0.643,-0.476 -0.312,-1.495 0.488,-1.502l6.177,-0.047l1.954,-5.86c0.251,-0.759 1.325,-0.759 1.578,0z"/>
   <path id="svg_43" fill="#F5F5F5" d="m166.549,143.155l1.954,5.86l6.177,0.047c0.8,0.007 1.131,1.027 0.488,1.502l-4.969,3.67l1.864,5.889c0.242,0.762 -0.627,1.394 -1.278,0.928l-5.025,-3.592l-5.025,3.592c-0.651,0.465 -1.518,-0.166 -1.278,-0.928l1.864,-5.889l-4.969,-3.67c-0.643,-0.476 -0.312,-1.495 0.488,-1.502l6.177,-0.047l1.954,-5.86c0.251,-0.76 1.325,-0.76 1.578,0z"/>
   <path id="svg_44" fill="#F5F5F5" d="m190.342,35.567l1.954,5.86l6.177,0.047c0.8,0.007 1.131,1.027 0.488,1.502l-4.969,3.67l1.864,5.889c0.242,0.762 -0.627,1.394 -1.278,0.928l-5.025,-3.592l-5.025,3.592c-0.651,0.465 -1.518,-0.166 -1.278,-0.928l1.864,-5.889l-4.969,-3.67c-0.643,-0.476 -0.312,-1.495 0.488,-1.502l6.177,-0.047l1.954,-5.86c0.252,-0.758 1.326,-0.758 1.578,0z"/>
   <path id="svg_45" fill="#F5F5F5" d="m190.342,66.222l1.954,5.86l6.177,0.047c0.8,0.007 1.131,1.027 0.488,1.502l-4.969,3.67l1.864,5.889c0.242,0.762 -0.627,1.394 -1.278,0.928l-5.025,-3.592l-5.025,3.592c-0.651,0.465 -1.518,-0.165 -1.278,-0.928l1.864,-5.889l-4.969,-3.67c-0.643,-0.476 -0.312,-1.495 0.488,-1.502l6.177,-0.047l1.954,-5.86c0.252,-0.759 1.326,-0.759 1.578,0z"/>
   <path id="svg_46" fill="#F5F5F5" d="m190.342,96.876l1.954,5.86l6.177,0.047c0.8,0.007 1.131,1.027 0.488,1.502l-4.969,3.67l1.864,5.889c0.242,0.762 -0.627,1.394 -1.278,0.928l-5.025,-3.592l-5.025,3.592c-0.651,0.465 -1.518,-0.166 -1.278,-0.928l1.864,-5.889l-4.969,-3.67c-0.643,-0.476 -0.312,-1.495 0.488,-1.502l6.177,-0.047l1.954,-5.86c0.252,-0.759 1.326,-0.759 1.578,0z"/>
   <path id="svg_47" fill="#F5F5F5" d="m190.342,127.53l1.954,5.86l6.177,0.047c0.8,0.007 1.131,1.027 0.488,1.502l-4.969,3.67l1.864,5.889c0.242,0.762 -0.627,1.394 -1.278,0.928l-5.025,-3.592l-5.025,3.592c-0.651,0.465 -1.518,-0.166 -1.278,-0.928l1.864,-5.889l-4.969,-3.67c-0.643,-0.476 -0.312,-1.495 0.488,-1.502l6.177,-0.047l1.954,-5.86c0.252,-0.758 1.326,-0.758 1.578,0z"/>
   <path id="svg_48" fill="#F5F5F5" d="m214.136,20.538l1.954,5.86l6.177,0.047c0.8,0.007 1.131,1.027 0.488,1.502l-4.969,3.67l1.864,5.889c0.242,0.762 -0.627,1.394 -1.278,0.928l-5.025,-3.592l-5.025,3.592c-0.651,0.465 -1.518,-0.166 -1.278,-0.928l1.864,-5.889l-4.969,-3.67c-0.643,-0.476 -0.312,-1.495 0.488,-1.502l6.177,-0.047l1.954,-5.86c0.252,-0.759 1.324,-0.759 1.578,0z"/>
   <path id="svg_49" fill="#F5F5F5" d="m214.136,51.192l1.954,5.86l6.177,0.047c0.8,0.007 1.131,1.027 0.488,1.502l-4.969,3.67l1.864,5.889c0.242,0.762 -0.627,1.394 -1.278,0.928l-5.025,-3.592l-5.025,3.592c-0.651,0.465 -1.518,-0.166 -1.278,-0.928l1.864,-5.889l-4.969,-3.67c-0.643,-0.476 -0.312,-1.495 0.488,-1.502l6.177,-0.047l1.954,-5.86c0.252,-0.758 1.324,-0.758 1.578,0z"/>
   <path id="svg_50" fill="#F5F5F5" d="m214.136,81.846l1.954,5.86l6.177,0.047c0.8,0.007 1.131,1.027 0.488,1.502l-4.969,3.67l1.864,5.889c0.242,0.762 -0.627,1.394 -1.278,0.928l-5.025,-3.592l-5.025,3.592c-0.651,0.465 -1.518,-0.166 -1.278,-0.928l1.864,-5.889l-4.969,-3.67c-0.643,-0.476 -0.312,-1.495 0.488,-1.502l6.177,-0.047l1.954,-5.86c0.252,-0.758 1.324,-0.758 1.578,0z"/>
   <path id="svg_51" fill="#F5F5F5" d="m214.136,112.501l1.954,5.86l6.177,0.047c0.8,0.007 1.131,1.027 0.488,1.502l-4.969,3.67l1.864,5.889c0.242,0.762 -0.627,1.394 -1.278,0.928l-5.025,-3.592l-5.025,3.592c-0.651,0.465 -1.518,-0.166 -1.278,-0.928l1.864,-5.889l-4.969,-3.67c-0.643,-0.476 -0.312,-1.495 0.488,-1.502l6.177,-0.047l1.954,-5.86c0.252,-0.759 1.324,-0.759 1.578,0z"/>
   <path id="svg_52" fill="#F5F5F5" d="m214.136,143.155l1.954,5.86l6.177,0.047c0.8,0.007 1.131,1.027 0.488,1.502l-4.969,3.67l1.864,5.889c0.242,0.762 -0.627,1.394 -1.278,0.928l-5.025,-3.592l-5.025,3.592c-0.651,0.465 -1.518,-0.166 -1.278,-0.928l1.864,-5.889l-4.969,-3.67c-0.643,-0.476 -0.312,-1.495 0.488,-1.502l6.177,-0.047l1.954,-5.86c0.252,-0.76 1.324,-0.76 1.578,0z"/>
  </g>
  <g id="svg_53"/>
  <g id="svg_54"/>
  <g id="svg_55"/>
  <g id="svg_56"/>
  <g id="svg_57"/>
  <g id="svg_58"/>
  <g id="svg_59"/>
  <g id="svg_60"/>
  <g id="svg_61"/>
  <g id="svg_62"/>
  <g id="svg_63"/>
  <g id="svg_64"/>
  <g id="svg_65"/>
  <g id="svg_66"/>
  <g id="svg_67"/>
 </g>
</svg>